# xmcd CD database file
# Copyright (C) 1996 Ti Kan
#
# Track frame offsets:
# 	150
# 	15658
# 	36770
# 	57963
# 	73205
# 	85873
# 	100470
# 	122865
# 	146393
# 	159253
# 	170925
# 	181438
#
# Disc length: 2615 seconds
#
# Revision: 1
# Processed by: cddbd v1.4b41PL1 Copyright (c) Steve Scherf et al.
# Submitted via: DiscPlay 3.4.1
#
DISCID=a70a350c
DTITLE=Various Artist - South Western Cooking
DYEAR=1900
DGENRE=
TTITLE0=Chet Atkins and Mark Knopfler: Sweet Dreams
TTITLE1=Willie Nelson: Across The Borderline
TTITLE2=Emmylou Harris: If You Were A Bluebird
TTITLE3=Los Lobos:  Prenda Del Alma
TTITLE4=Marty Robbins:  Maria Elena
TTITLE5=Texas Tornadoes:  Laredo Rose
TTITLE6=Jimmie Dale Gilmore:  When Nights Are Cold
TTITLE7=Rodney Crowell:  The Last Waltz
TTITLE8=Flaco Jimenez:  Ay te Dejo en San Antonio
TTITLE9=Santiago Jimenez Jr.:  Una Noche en un Jardin
TTITLE10=Patsy Cline:  San Antonio Rose
TTITLE11=Willie Nelson:  South Of The Border
EXTD=
EXTT0=
EXTT1=
EXTT2=
EXTT3=
EXTT4=
EXTT5=
EXTT6=
EXTT7=
EXTT8=
EXTT9=
EXTT10=
EXTT11=
PLAYORDER=
